<svg version="1.1" id="Uploaded to svgrepo.com" xmlns="http://www.w3.org/2000/svg" xmlns:xlink="http://www.w3.org/1999/xlink" x="0px" y="0px"
	 width="32px" height="32px" viewBox="0 0 32 32" style="enable-background:new 0 0 32 32;" xml:space="preserve">
<style type="text/css">
	.pictogram_zes{fill:#0C6667;}
	.pictogram_een{fill:#F4D6B0;}
	.pictogram_drie{fill:#F27261;}
	.pictogram_vier{fill:#E54D2E;}
	.st0{fill:#F8AD89;}
	.st1{fill:#01A59C;}
	.st2{fill:none;}
</style>
<g>
	<path class="pictogram_zes" d="M18.293,21.313c0.202,0.348,0.201,0.777-0.001,1.125C18.091,22.785,17.718,23,17.314,23h-1.629
		c-0.404,0-0.777-0.215-0.978-0.563c-0.202-0.348-0.202-0.777-0.001-1.125l0.815-1.406c0.202-0.348,0.575-0.563,0.978-0.563
		s0.777,0.215,0.978,0.563L18.293,21.313z M23,15.5c0-1.379-1.121-2.5-2.5-2.5S18,14.121,18,15.5c0,1.378,1.121,2.5,2.5,2.5
		S23,16.879,23,15.5z M12.5,13c-1.379,0-2.5,1.121-2.5,2.5c0,1.378,1.121,2.5,2.5,2.5s2.5-1.121,2.5-2.5
		C15,14.121,13.879,13,12.5,13z M32,14.342C31.17,6.285,24.363,0,16.086,0c-8.837,0-16,7.163-16,16c0,2.918,0.794,5.645,2.158,8H10
		v-1.382l-3-1.5v-8.667C7,7.232,11.249,3,16.49,3h0.019C21.751,3,26,7.232,26,12.452v8.667l-3.023,1.5V24h6.951
		c1.103-1.903,1.836-4.047,2.072-6.342V14.342z"/>
	<path class="pictogram_vier" d="M16.526,26.784c-0.027-0.112-0.043-0.228-0.043-0.348c0,0.868-0.728,1.571-1.625,1.571
		s-1.625-0.703-1.625-1.571c0,0.868-0.728,1.571-1.625,1.571s-1.625-0.703-1.625-1.571c0-3.807,0.015,2.584,0.017-2.435H2.244
		c2.147,3.707,5.734,6.463,10.001,7.516l4.886-3.832C16.864,27.488,16.613,27.146,16.526,26.784z"/>
	<path class="pictogram_drie" d="M22.983,26.435c0,0.868-0.728,1.571-1.625,1.571s-1.625-0.703-1.625-1.571
		c0,1.3-1.532,2.032-2.601,1.249l-4.886,3.832C13.478,31.821,14.759,32,16.086,32c5.919,0,11.074-3.222,13.842-8h-6.951
		C22.977,26.512,22.983,23.91,22.983,26.435z"/>
	<path class="pictogram_een" d="M22.977,22.618l3.023-1.5v-8.667C26,7.232,21.751,3,16.51,3H16.49C11.249,3,7,7.232,7,12.452v8.667
		l3,1.5c0,7.468-0.017-0.286-0.017,3.817c0,0.868,0.728,1.571,1.625,1.571s1.625-0.703,1.625-1.571c0,0.868,0.728,1.571,1.625,1.571
		s1.625-0.703,1.625-1.571c0,0.884,0.766,1.571,1.625,1.571c0.897,0,1.625-0.703,1.625-1.571c0,0.868,0.728,1.571,1.625,1.571
		s1.625-0.703,1.625-1.571C22.983,26.073,22.977,24.475,22.977,22.618z M20.5,13c1.379,0,2.5,1.121,2.5,2.5
		c0,1.378-1.121,2.5-2.5,2.5S18,16.879,18,15.5C18,14.121,19.121,13,20.5,13z M16.5,19.344c0.404,0,0.777,0.215,0.978,0.563
		l0.815,1.406c0.202,0.348,0.201,0.777-0.001,1.125C18.091,22.785,17.718,23,17.314,23h-1.629c-0.404,0-0.777-0.215-0.978-0.563
		c-0.202-0.348-0.202-0.777-0.001-1.125l0.815-1.406C15.723,19.559,16.096,19.344,16.5,19.344z M12.5,13c1.379,0,2.5,1.121,2.5,2.5
		c0,1.378-1.121,2.5-2.5,2.5S10,16.879,10,15.5C10,14.121,11.121,13,12.5,13z"/>
</g>
</svg>