<?xml version="1.0" encoding="iso-8859-1"?>
<!-- Generator: Adobe Illustrator 19.0.0, SVG Export Plug-In . SVG Version: 6.00 Build 0)  -->
<svg xmlns="http://www.w3.org/2000/svg" xmlns:xlink="http://www.w3.org/1999/xlink" version="1.1" id="Capa_1" x="0px" y="0px" viewBox="0 0 506.065 506.065" style="enable-background:new 0 0 506.065 506.065;" xml:space="preserve" width="512" height="512">
<g>
	<path style="fill:#E95B2D;" d="M325.828,396.051h85.427c0-31.956-42.714-48.371-42.714-48.371S325.828,364.095,325.828,396.051z"/>
	<path style="fill:#FABA45;" d="M305.992,254.348c0,74.834,62.549,93.332,62.549,93.332s62.547-18.498,62.547-93.332   s-62.547-93.333-62.547-93.333S305.992,179.514,305.992,254.348z"/>
	<path style="fill:#E95B2D;" d="M350.042,224.6c0-10.214,8.281-18.497,18.499-18.497c10.216,0,18.498,8.283,18.498,18.497   c0,10.22-8.282,18.501-18.498,18.501C358.323,243.1,350.042,234.819,350.042,224.6z"/>
	<path style="fill:#E95B2D;" d="M74.978,386.481v-23.437c0-8.601,6.973-15.573,15.573-15.573l0,0c8.6,0,15.573,6.973,15.573,15.573   v119.947c0,8.601-6.974,15.573-15.573,15.573l0,0c-8.601,0-15.573-6.973-15.573-15.573v-76.385"/>
	<circle style="fill:#FABA45;" cx="138.372" cy="379.72" r="32.248"/>
	<path style="fill:#0F2639;" d="M385.9,348.102c5.64-3.132,12.277-7.502,18.913-13.434c15.407-13.774,33.774-38.891,33.774-80.32   s-18.367-66.546-33.774-80.32c-11.186-10-22.382-15.57-28.772-18.224V15.836C383.537,15.282,391.085,15,398.679,15V0   c-84.308,0-163.568,32.831-223.183,92.445c-59.614,59.615-92.445,138.877-92.445,223.184v25.6   c-9.051,3.121-15.573,11.718-15.573,21.815v23.437h15v-23.437c0-4.451,3.622-8.073,8.073-8.073c4.451,0,8.073,3.622,8.073,8.073   v119.947c0,4.451-3.622,8.073-8.073,8.073c-4.451,0-8.073-3.622-8.073-8.073v-76.385h-15v76.385   c0,12.723,10.351,23.073,23.073,23.073c12.723,0,23.073-10.351,23.073-23.073v-72.203c6.796,5.425,15.396,8.679,24.748,8.679   c21.917,0,39.747-17.831,39.747-39.748s-17.83-39.748-39.747-39.748c-10.859,0-20.712,4.382-27.894,11.465   c-2.768-4.732-7.169-8.394-12.428-10.207v-25.6c0-5.542,0.164-11.059,0.46-16.55c16.968-1.34,31.422-13.929,34.564-31.344   c1.973-10.954-0.914-21.668-7.156-29.902c9.651-3.704,17.756-11.29,21.857-21.638c4.099-10.349,3.385-21.426-1.111-30.735   c10.193-1.723,19.641-7.55,25.707-16.882c6.062-9.33,7.551-20.332,4.983-30.347c0.401,0.013,0.804,0.026,1.205,0.026   c9.935-0.001,19.848-3.862,27.333-11.5c7.783-7.946,11.416-18.436,10.88-28.761c2.865,0.672,5.804,1.017,8.754,1.017   c7.415,0,14.905-2.155,21.488-6.626c9.207-6.255,14.842-15.819,16.355-26.047c4.956,2.269,10.377,3.485,15.905,3.485   c4.955-0.001,9.993-0.969,14.844-3.008c10.262-4.312,17.675-12.568,21.18-22.289c6.399,4.648,14.21,7.3,22.418,7.3   c2.516,0,5.069-0.249,7.63-0.765c5.9-1.189,11.209-3.683,15.693-7.113v111.851c-6.392,2.654-17.587,8.225-28.773,18.225   c-15.408,13.774-33.775,38.891-33.775,80.32s18.367,66.546,33.776,80.32c6.636,5.932,13.273,10.302,18.913,13.434   c-13.975,8.495-32.853,24.339-32.853,47.949v7.5h100.427v-7.5C418.754,372.44,399.875,356.597,385.9,348.102z M138.372,354.972   c13.646,0,24.747,11.102,24.747,24.748c0,13.647-11.102,24.748-24.747,24.748c-13.646,0-24.748-11.102-24.748-24.748   C113.624,366.073,124.726,354.972,138.372,354.972z M118.314,265.075c-1.759,9.748-9.354,17.004-18.592,18.729   c1.52-14.528,4.07-28.83,7.629-42.818C115.462,245.809,120.077,255.286,118.314,265.075z M133.831,210.671   c-3.667,9.252-12.596,14.876-22.039,14.688c4.35-13.881,9.705-27.405,16.034-40.489   C134.839,191.202,137.497,201.417,133.831,210.671z M159.795,160.405c-5.422,8.339-15.276,12.074-24.491,10.033   c6.99-12.638,14.921-24.803,23.759-36.414C164.622,141.61,165.194,152.096,159.795,160.405z M195.179,116.262   c-6.931,7.071-17.275,8.8-25.883,5.041c5.329-6.27,10.923-12.366,16.807-18.25c4.414-4.414,8.954-8.655,13.588-12.758   C203.619,98.823,202.101,109.193,195.179,116.262z M238.587,79.98c-8.195,5.565-18.687,5.212-26.384-0.185   c11.433-9.076,23.432-17.253,35.913-24.498C250.342,64.468,246.81,74.394,238.587,79.98z M288.309,52.991   c-9.179,3.856-19.446,1.408-25.921-5.476c12.957-6.603,26.369-12.239,40.149-16.874C302.927,40.085,297.492,49.133,288.309,52.991z    M342.383,36.36c-9.769,1.972-19.343-2.459-24.326-10.486c13.926-3.852,28.181-6.695,42.675-8.51   C359.21,26.651,352.106,34.4,342.383,36.36z M313.492,254.348c0-28.561,9.523-51.68,28.305-68.717   c10.998-9.976,22.185-14.922,26.743-16.668c4.572,1.751,15.752,6.698,26.743,16.668c18.782,17.036,28.305,40.156,28.305,68.717   c0,28.561-9.522,51.68-28.304,68.716c-10.909,9.895-21.994,14.838-26.632,16.624l-0.111-0.043l-0.111,0.043   c-4.639-1.786-15.724-6.729-26.633-16.624C323.015,306.027,313.492,282.908,313.492,254.348z M334.362,388.551   c4.979-17.856,26.56-29.194,34.189-32.705c3.571,1.636,10.189,4.987,16.815,10.012c9.332,7.078,15.146,14.684,17.364,22.693   H334.362z"/>
	<path style="fill:#0F2639;" d="M368.54,250.6c14.335,0,25.998-11.664,25.998-26.001c0-14.335-11.663-25.997-25.998-25.997   c-14.336,0-25.999,11.662-25.999,25.997C342.542,238.936,354.205,250.6,368.54,250.6z M368.54,213.602   c6.065,0,10.998,4.934,10.998,10.997c0,6.066-4.934,11.001-10.998,11.001c-6.064,0-10.999-4.934-10.999-11.001   C357.542,218.536,362.476,213.602,368.54,213.602z"/>
</g>















</svg>
