<?xml version="1.0" encoding="iso-8859-1"?>
<!-- Generator: Adobe Illustrator 19.0.0, SVG Export Plug-In . SVG Version: 6.00 Build 0)  -->
<svg version="1.1" id="Layer_1" xmlns="http://www.w3.org/2000/svg" xmlns:xlink="http://www.w3.org/1999/xlink" x="0px" y="0px"
	 viewBox="0 0 512 512" style="enable-background:new 0 0 512 512;" xml:space="preserve">
<path style="fill:#16153B;" d="M283.213,452.111c-105.975,0-189.519-97.544-193.023-101.696c-4.359-5.165-4.359-12.721,0-17.886
	c3.504-4.153,87.048-101.696,193.023-101.696s189.519,97.544,193.023,101.696c4.94,5.853,4.199,14.601-1.651,19.54
	c-5.851,4.939-14.599,4.2-19.54-1.653c-0.771-0.91-78.867-91.851-171.831-91.851c-75.597,0-141.066,59.789-163.54,82.895
	c22.507,23.085,88.131,82.92,163.54,82.92c7.657,0,13.866,6.208,13.866,13.866S290.869,452.111,283.213,452.111z"/>
<path style="fill:#97C4E8;" d="M100.785,341.472c0,0,0.165-0.196,0.471-0.549c-20.75,0.062-48.247,3.989-65.827,21.57
	c-31.333,31.333-19.301,94.163-19.301,94.163s62.831,12.03,94.162-19.301c17.443-17.443,21.445-44.644,21.567-65.336
	C112.239,355.043,100.785,341.472,100.785,341.472z"/>
<path style="fill:#16153B;" d="M43.965,472.794c-0.003,0-0.001,0-0.004,0c-17.094,0-29.902-2.414-30.439-2.517
	c-5.58-1.069-9.943-5.431-11.012-11.011c-0.548-2.861-12.997-70.463,23.116-106.575c21.061-21.061,52.732-25.563,75.59-25.631
	c0.014,0,0.028,0,0.042,0c5.422,0,10.347,3.16,12.606,8.091c0.053,0.114,0.103,0.229,0.151,0.342
	c4.301,4.724,13.698,14.605,26.917,26.043c3.066,2.653,4.817,6.513,4.793,10.567c-0.134,22.683-4.688,54.12-25.628,75.059
	C98.911,468.344,67.002,472.794,43.965,472.794z M28.395,444.303c4.231,0.408,9.594,0.757,15.566,0.757c0,0,0.003,0,0.004,0
	c17.797,0,42.049-3.038,56.521-17.511c12.654-12.654,16.548-32.817,17.341-49.411c-11.025-9.881-19.095-18.275-23.58-23.163
	c-16.584,0.839-36.474,4.785-49.012,17.323C27.309,390.223,26.462,424.504,28.395,444.303z"/>
<path style="fill:#97C4E8;" d="M100.785,341.472c0,0,11.453-13.571,31.072-30.547c-0.122-20.692-4.124-47.893-21.567-65.337
	c-31.333-31.333-94.162-19.301-94.162-19.301s-12.03,62.831,19.301,94.162c17.581,17.581,45.077,21.509,65.827,21.57
	C100.951,341.667,100.785,341.472,100.785,341.472z"/>
<path style="fill:#16153B;" d="M101.256,355.887c-0.014,0-0.028,0-0.042,0c-22.859-0.068-54.531-4.572-75.59-25.633
	C-10.487,294.142,1.962,226.54,2.51,223.679c1.069-5.578,5.431-9.942,11.011-11.011c0.537-0.103,13.342-2.517,30.441-2.517
	c23.038,0,54.948,4.448,76.135,25.633c20.939,20.939,25.494,52.375,25.627,75.059c0.024,4.053-1.728,7.915-4.793,10.567
	c-13.214,11.435-22.611,21.313-26.917,26.042c-0.05,0.116-0.101,0.233-0.154,0.348C111.6,352.728,106.675,355.887,101.256,355.887z
	 M28.476,238.632c-1.656,17.187-2.378,52.877,16.758,72.013c12.536,12.538,32.427,16.484,49.012,17.324
	c4.486-4.889,12.556-13.282,23.58-23.163c-0.795-16.595-4.687-36.757-17.341-49.411c-14.473-14.473-38.728-17.511-56.526-17.511
	C38.027,237.883,32.696,238.227,28.476,238.632z"/>
<path style="fill:#97C4E8;" d="M354.493,259.936c-18.463,19.812-29.776,46.373-29.776,75.59c0,33.448,14.826,63.415,38.238,83.753
	c60.788-28.176,102.683-77.806,102.683-77.806S419.823,287.191,354.493,259.936z"/>
<g>
	<path style="fill:#16153B;" d="M362.957,433.144c-3.279,0-6.523-1.162-9.096-3.399c-27.334-23.744-43.011-58.086-43.011-94.221
		c0-31.662,11.896-61.864,33.497-85.044c3.953-4.242,10.126-5.577,15.483-3.343c67.647,28.221,114.443,83.068,116.402,85.389
		c4.361,5.166,4.361,12.722,0,17.889c-1.791,2.121-44.599,52.311-107.449,81.442C366.923,432.723,364.933,433.144,362.957,433.144z
		 M358.366,276.825c-12.816,16.829-19.783,37.34-19.783,58.702c0,25.089,9.723,49.07,26.946,67.071
		c37.971-19.448,67.549-47.074,81.224-61.125C432.236,326.558,399.778,296.331,358.366,276.825z"/>
	<path style="fill:#16153B;" d="M378.566,336.389h-0.464c-7.657,0-13.866-6.208-13.866-13.866s6.209-13.866,13.866-13.866h0.464
		c7.657,0,13.866,6.208,13.866,13.866S386.224,336.389,378.566,336.389z"/>
	<path style="fill:#16153B;" d="M465.639,270.324c-25.565,0-46.362-20.798-46.362-46.362c0-7.658,6.209-13.866,13.866-13.866
		s13.866,6.208,13.866,13.866c0,10.272,8.356,18.63,18.629,18.63c10.273,0,18.63-8.357,18.63-18.63V121.433
		c0-7.658,6.209-13.866,13.866-13.866S512,113.774,512,121.433v102.529C512,249.527,491.202,270.324,465.639,270.324z"/>
	<path style="fill:#16153B;" d="M497.726,130.258c-25.103,0-45.526-20.423-45.526-45.526s20.423-45.526,45.526-45.526
		c7.657,0,13.866,6.208,13.866,13.866s-6.209,13.866-13.866,13.866c-9.812,0-17.794,7.983-17.794,17.794
		c0,9.813,7.983,17.794,17.794,17.794c7.657,0,13.866,6.208,13.866,13.866S505.383,130.258,497.726,130.258z"/>
</g>
<g>
</g>
<g>
</g>
<g>
</g>
<g>
</g>
<g>
</g>
<g>
</g>
<g>
</g>
<g>
</g>
<g>
</g>
<g>
</g>
<g>
</g>
<g>
</g>
<g>
</g>
<g>
</g>
<g>
</g>
</svg>
